<svg xmlns="http://www.w3.org/2000/svg" xmlns:xlink="http://www.w3.org/1999/xlink" contentStyleType="text/css" data-diagram-type="CLASS" height="637px" preserveAspectRatio="none" style="width:487px;height:637px;background:#FFFFFF;" version="1.1" viewBox="0 0 487 637" width="487px" zoomAndPan="magnify"><defs/><g><!--cluster Entity--><g class="cluster" data-entity="Entity" data-source-line="8" data-uid="ent0004" id="cluster_Entity"><path d="M8.5,6 L92.3311,6 A3.75,3.75 0 0 1 94.8311,8.5 L101.8311,28.2969 L477.5,28.2969 A2.5,2.5 0 0 1 480,30.7969 L480,627.63 A2.5,2.5 0 0 1 477.5,630.13 L8.5,630.13 A2.5,2.5 0 0 1 6,627.63 L6,8.5 A2.5,2.5 0 0 1 8.5,6" fill="none" style="stroke:#000000;stroke-width:1.5;"/><line style="stroke:#000000;stroke-width:1.5;" x1="6" x2="101.8311" y1="28.2969" y2="28.2969"/><text fill="#000000" font-family="sans-serif" font-size="14" font-weight="bold" lengthAdjust="spacing" textLength="82.8311" x="10" y="20.9951">App\Entity</text></g><!--class Tag--><g class="entity" data-entity="Tag" data-source-line="8" data-uid="ent0002" id="entity_Tag"><rect fill="#F1F1F1" height="66.8906" rx="2.5" ry="2.5" style="stroke:#181818;stroke-width:0.5;" width="203.2217" x="260.39" y="502.5"/><text fill="#000000" font-family="sans-serif" font-size="14" lengthAdjust="spacing" textLength="26.0176" x="348.9921" y="520.4951">Tag</text><line style="stroke:#181818;stroke-width:0.5;" x1="261.39" x2="462.6117" y1="528.7969" y2="528.7969"/><rect fill="none" height="6" style="stroke:#C82930;stroke-width:1;" width="6" x="268.39" y="539.4453"/><text fill="#000000" font-family="sans-serif" font-size="14" lengthAdjust="spacing" textLength="98.2324" x="280.39" y="545.792">id : ?int = null</text><rect fill="none" height="6" style="stroke:#C82930;stroke-width:1;" width="6" x="268.39" y="555.7422"/><text fill="#000000" font-family="sans-serif" font-size="14" lengthAdjust="spacing" textLength="177.2217" x="280.39" y="562.0889">name : string {readonly}</text></g><!--class User--><g class="entity" data-entity="User" data-source-line="12" data-uid="ent0005" id="entity_User"><rect fill="#F1F1F1" height="156.375" rx="2.5" ry="2.5" style="stroke:#181818;stroke-width:0.5;" width="203.6318" x="22.18" y="457.75"/><text fill="#000000" font-family="sans-serif" font-size="14" lengthAdjust="spacing" textLength="31.9102" x="108.0408" y="475.7451">User</text><line style="stroke:#181818;stroke-width:0.5;" x1="23.18" x2="224.8118" y1="484.0469" y2="484.0469"/><rect fill="none" height="6" style="stroke:#C82930;stroke-width:1;" width="6" x="30.18" y="494.6953"/><text fill="#000000" font-family="sans-serif" font-size="14" lengthAdjust="spacing" textLength="98.2324" x="42.18" y="501.042">id : ?int = null</text><rect fill="none" height="6" style="stroke:#C82930;stroke-width:1;" width="6" x="30.18" y="510.9922"/><text fill="#000000" font-family="sans-serif" font-size="14" lengthAdjust="spacing" textLength="170.2764" x="42.18" y="517.3389">fullName : ?string = null</text><rect fill="none" height="6" style="stroke:#C82930;stroke-width:1;" width="6" x="30.18" y="527.2891"/><text fill="#000000" font-family="sans-serif" font-size="14" lengthAdjust="spacing" textLength="177.6318" x="42.18" y="533.6357">username : ?string = null</text><rect fill="none" height="6" style="stroke:#C82930;stroke-width:1;" width="6" x="30.18" y="543.5859"/><text fill="#000000" font-family="sans-serif" font-size="14" lengthAdjust="spacing" textLength="146.002" x="42.18" y="549.9326">email : ?string = null</text><rect fill="none" height="6" style="stroke:#C82930;stroke-width:1;" width="6" x="30.18" y="559.8828"/><text fill="#000000" font-family="sans-serif" font-size="14" lengthAdjust="spacing" textLength="174.1045" x="42.18" y="566.2295">password : ?string = null</text><line style="stroke:#181818;stroke-width:0.5;" x1="23.18" x2="224.8118" y1="573.5313" y2="573.5313"/><rect fill="#F24D5C" height="6" style="stroke:#C82930;stroke-width:1;" width="6" x="30.18" y="584.1797"/><text fill="#000000" font-family="sans-serif" font-size="14" lengthAdjust="spacing" textLength="152.1885" x="42.18" y="590.5264">roles : array = array (</text><text fill="#000000" font-family="sans-serif" font-size="14" lengthAdjust="spacing" textLength="5.4619" x="42.18" y="606.8232">)</text></g><!--class Post--><g class="entity" data-entity="Post" data-source-line="21" data-uid="ent0006" id="entity_Post"><rect fill="#F1F1F1" height="180.9688" rx="2.5" ry="2.5" style="stroke:#181818;stroke-width:0.5;" width="396.084" x="67.96" y="216.79"/><text fill="#000000" font-family="sans-serif" font-size="14" lengthAdjust="spacing" textLength="29.791" x="251.1065" y="234.7851">Post</text><line style="stroke:#181818;stroke-width:0.5;" x1="68.96" x2="463.044" y1="243.0869" y2="243.0869"/><rect fill="none" height="6" style="stroke:#C82930;stroke-width:1;" width="6" x="75.96" y="253.7353"/><text fill="#000000" font-family="sans-serif" font-size="14" lengthAdjust="spacing" textLength="98.2324" x="87.96" y="260.082">id : ?int = null</text><rect fill="none" height="6" style="stroke:#C82930;stroke-width:1;" width="6" x="75.96" y="270.0322"/><text fill="#000000" font-family="sans-serif" font-size="14" lengthAdjust="spacing" textLength="134.7637" x="87.96" y="276.3789">title : ?string = null</text><rect fill="none" height="6" style="stroke:#C82930;stroke-width:1;" width="6" x="75.96" y="286.3291"/><text fill="#000000" font-family="sans-serif" font-size="14" lengthAdjust="spacing" textLength="136.3359" x="87.96" y="292.6757">slug : ?string = null</text><rect fill="none" height="6" style="stroke:#C82930;stroke-width:1;" width="6" x="75.96" y="302.6259"/><text fill="#000000" font-family="sans-serif" font-size="14" lengthAdjust="spacing" textLength="173.4551" x="87.96" y="308.9726">summary : ?string = null</text><rect fill="none" height="6" style="stroke:#C82930;stroke-width:1;" width="6" x="75.96" y="318.9228"/><text fill="#000000" font-family="sans-serif" font-size="14" lengthAdjust="spacing" textLength="160.9932" x="87.96" y="325.2695">content : ?string = null</text><rect fill="none" height="6" style="stroke:#C82930;stroke-width:1;" width="6" x="75.96" y="335.2197"/><text fill="#000000" font-family="sans-serif" font-size="14" lengthAdjust="spacing" textLength="240.666" x="87.96" y="341.5664">publishedAt : DateTimeImmutable</text><rect fill="none" height="6" style="stroke:#C82930;stroke-width:1;" width="6" x="75.96" y="351.5166"/><text fill="#000000" font-family="sans-serif" font-size="14" lengthAdjust="spacing" textLength="222.9063" x="87.96" y="357.8632">author : ?App\Entity\User = null</text><rect fill="none" height="6" style="stroke:#C82930;stroke-width:1;" width="6" x="75.96" y="367.8134"/><text fill="#000000" font-family="sans-serif" font-size="14" lengthAdjust="spacing" textLength="370.084" x="87.96" y="374.1601">comments : Doctrine\Common\Collections\Collection</text><rect fill="none" height="6" style="stroke:#C82930;stroke-width:1;" width="6" x="75.96" y="384.1103"/><text fill="#000000" font-family="sans-serif" font-size="14" lengthAdjust="spacing" textLength="326.5254" x="87.96" y="390.457">tags : Doctrine\Common\Collections\Collection</text></g><!--class Comment--><g class="entity" data-entity="Comment" data-source-line="32" data-uid="ent0007" id="entity_Comment"><rect fill="#F1F1F1" height="115.7813" rx="2.5" ry="2.5" style="stroke:#181818;stroke-width:0.5;" width="266.666" x="76.67" y="41"/><text fill="#000000" font-family="sans-serif" font-size="14" lengthAdjust="spacing" textLength="68.5918" x="175.7071" y="58.9951">Comment</text><line style="stroke:#181818;stroke-width:0.5;" x1="77.67" x2="342.336" y1="67.2969" y2="67.2969"/><rect fill="none" height="6" style="stroke:#C82930;stroke-width:1;" width="6" x="84.67" y="77.9453"/><text fill="#000000" font-family="sans-serif" font-size="14" lengthAdjust="spacing" textLength="98.2324" x="96.67" y="84.292">id : ?int = null</text><rect fill="none" height="6" style="stroke:#C82930;stroke-width:1;" width="6" x="84.67" y="94.2422"/><text fill="#000000" font-family="sans-serif" font-size="14" lengthAdjust="spacing" textLength="160.9932" x="96.67" y="100.5889">content : ?string = null</text><rect fill="none" height="6" style="stroke:#C82930;stroke-width:1;" width="6" x="84.67" y="110.5391"/><text fill="#000000" font-family="sans-serif" font-size="14" lengthAdjust="spacing" textLength="240.666" x="96.67" y="116.8857">publishedAt : DateTimeImmutable</text><rect fill="none" height="6" style="stroke:#C82930;stroke-width:1;" width="6" x="84.67" y="126.8359"/><text fill="#000000" font-family="sans-serif" font-size="14" lengthAdjust="spacing" textLength="204.8867" x="96.67" y="133.1826">post : ?App\Entity\Post = null</text><rect fill="none" height="6" style="stroke:#C82930;stroke-width:1;" width="6" x="84.67" y="143.1328"/><text fill="#000000" font-family="sans-serif" font-size="14" lengthAdjust="spacing" textLength="222.9063" x="96.67" y="149.4795">author : ?App\Entity\User = null</text></g><!--link Post to User--><g class="link" data-entity-1="Post" data-entity-2="User" data-source-line="39" data-uid="lnk8" id="link_Post_User"><path codeLine="39" d="M146.89,397.98 C146.89,417.68 146.89,432.36 146.89,451.54" fill="none" id="Post-to-User" style="stroke:#181818;stroke-width:1;"/><polygon fill="#181818" points="146.89,457.54,150.89,448.54,146.89,452.54,142.89,448.54,146.89,457.54" style="stroke:#181818;stroke-width:1;"/><text fill="#000000" font-family="sans-serif" font-size="13" lengthAdjust="spacing" textLength="6.5" x="131.1791" y="417.8779">*</text><text fill="#000000" font-family="sans-serif" font-size="13" lengthAdjust="spacing" textLength="8.271" x="140.6443" y="446.6943">1</text></g><!--link Post to Tag--><g class="link" data-entity-1="Post" data-entity-2="Tag" data-source-line="40" data-uid="lnk9" id="link_Post_Tag"><path codeLine="40" d="M362,397.98 C362,434.64 362,468.69 362,496.14" fill="none" id="Post-to-Tag" style="stroke:#181818;stroke-width:1;"/><polygon fill="#181818" points="362,502.14,366,493.14,362,497.14,358,493.14,362,502.14" style="stroke:#181818;stroke-width:1;"/><text fill="#000000" font-family="sans-serif" font-size="13" lengthAdjust="spacing" textLength="6.5" x="363.4307" y="417.8779">*</text><text fill="#000000" font-family="sans-serif" font-size="13" lengthAdjust="spacing" textLength="6.5" x="355.4756" y="491.3457">*</text></g><!--link Comment to Post--><g class="link" data-entity-1="Comment" data-entity-2="Post" data-source-line="41" data-uid="lnk10" id="link_Comment_Post"><path codeLine="41" d="M210,157.22 C210,175.64 210,196.45 210,216.58" fill="none" id="Comment-Post" style="stroke:#181818;stroke-width:1;"/><text fill="#000000" font-family="sans-serif" font-size="13" lengthAdjust="spacing" textLength="6.5" x="203.6817" y="176.9061">*</text><text fill="#000000" font-family="sans-serif" font-size="13" lengthAdjust="spacing" textLength="8.271" x="197.2294" y="205.8273">1</text></g><!--link Comment to User--><g class="link" data-entity-1="Comment" data-entity-2="User" data-source-line="42" data-uid="lnk11" id="link_Comment_User"><path codeLine="42" d="M76.48,99.13 C57.94,99.13 45.07,99.13 45.07,99.13 C45.07,99.13 45.07,325.58 45.07,451.34" fill="none" id="Comment-to-User" style="stroke:#181818;stroke-width:1;"/><polygon fill="#181818" points="45.07,457.34,49.07,448.34,45.07,452.34,41.07,448.34,45.07,457.34" style="stroke:#181818;stroke-width:1;"/><text fill="#000000" font-family="sans-serif" font-size="13" lengthAdjust="spacing" textLength="6.5" x="62.1759" y="95.7585">*</text><text fill="#000000" font-family="sans-serif" font-size="13" lengthAdjust="spacing" textLength="8.271" x="29.6965" y="446.7448">1</text></g><!--SRC=[fLDDIyH03BtFhuWzgR2Wu6b1PLazU53siE9bGR9jjXsSZvAP8aNslvkn8ckT8k8fGrxoahna0aK8r29Zz0mRK4SjOsqHka1tBX9RgZH6Mc7vWZK5sA49fCABTYd9Wj6EOjyIU8wDFm3kjLiQ3E59Lx61yuiprUYAeDHS6XhUPDlOWoMx9GxgA3Pa2PwTT_IiofGBYxRTtBgeOxzPOmrlQWQwWZbSQnVX4bndZBWSIjuSGcJj98W9A-zClrVxdpIFWNYAPoVcOU2w_YJxmaGFTXCOMTGc1xHI_DLpbSFO6v5p3iYClRW7UwnESbslV8XJNKk0oROLJ5Td_Psro7qEAhtiNCXpitHReqD3rIB1Dt8JQstfpjekubOsEWFiv08uvOxrFk2tLlZJt3U-J1LeinIVTsACeJ9gxyB1Eys7zH_YC-8jXw9J-lrhvZOjvll47xlwelXLbBqQvnQd1SncLr2S5-FBdOuzBKQVHMKK6AB7n8beEZhRnpi0]--></g></svg>